PathFileType	4	(X/Y/Z)	6_coords_data.trc
DataRate	CameraRate	NumFrames	NumMarkers	Units	OrigDataRate	OrigDataStartFrame	OrigNumFrames
30.0	30.0	7	21	m	30.0	10	75
Frame#	Time	THUMB_TIP	THUMB_IP	THUMB_MCP	THUMB_CMC	INDEX_TIP	INDEX_DIP	INDEX_PIP	INDEX_MCP	MIDDLE_TIP	MIDDLE_DIP	MIDDLE_PIP	MIDDLE_MCP	RING_TIP	RING_DIP	RING_PIP	RING_MCP	PINKY_TIP	PINKY_DIP	PINKY_PIP	PINKY_MCP	WRIST
X1	Y1	Z1	X2	Y2	Z2	X3	Y3	Z3	X4	Y4	Z4	X5	Y5	Z5	X6	Y6	Z6	X7	Y7	Z7	X8	Y8	Z8	X9	Y9	Z9	X10	Y10	Z10	X11	Y11	Z11	X12	Y12	Z12	X13	Y13	Z13	X14	Y14	Z14	X15	Y15	Z15	X16	Y16	Z16	X17	Y17	Z17	X18	Y18	Z18	X19	Y19	Z19	X20	Y20	Z20	X21	Y21	Z21
9	0.3	-0.014844699859619141	-0.13320599365234376	1.01697998046875	-0.004136980056762695	-0.10712699890136719	1.0235399780273438	-0.005847519874572754	-0.07998719787597657	1.0396099853515626	-0.006391610145568848	-0.04106119918823242	1.051260009765625	0.003362240076065063	-0.04783470153808594	1.0211900024414062	0.020947799682617188	-0.04629280090332031	1.0131900024414062	0.027848499298095703	-0.050154499053955075	0.9891859741210938	-0.013392200469970703	-0.0552943000793457	0.9905180053710938	0.009949469566345214	-0.032182701110839845	1.0245400390625	0.019187299728393555	-0.02903459930419922	1.0170599975585937	0.02709910011291504	-0.028542699813842772	0.9886729736328125	-0.017556699752807617	-0.031104700088500976	0.9835120239257813	0.004346879959106445	-0.015245400428771972	1.027010009765625	0.016191400527954102	-0.011727999687194825	1.0190399780273438	0.026297100067138673	-0.008168049812316894	0.9933870239257813	-0.01595450019836426	-0.006329790115356445	0.98714599609375	0.0014241000413894652	0.0021223499774932863	1.0251099853515624	0.016046899795532227	0.004218780040740967	1.01772998046875	0.020203899383544922	0.009620920181274414	0.999072021484375	-0.011326000213623047	0.01427400016784668	0.9963380126953125	-0.02578809928894043	-0.011674200057983398	1.0679300537109375
10	0.3333333333333333	-0.014937100410461425	-0.1331929931640625	1.0170700073242187	-0.004242219924926758	-0.10712200164794922	1.0236400146484375	-0.005946060180664062	-0.07995490264892578	1.03968994140625	-0.0065591101646423336	-0.041034500122070314	1.05131005859375	0.0031156599521636958	-0.04782339859008789	1.021239990234375	0.020866600036621094	-0.04627009963989258	1.013280029296875	0.027639499664306642	-0.05010240173339844	0.9890339965820313	-0.01330799961090088	-0.05527410125732422	0.9904329833984375	0.009334099769592286	-0.03244089889526367	1.0251300048828125	0.018950199127197264	-0.02905970001220703	1.0169600219726562	0.027054399490356446	-0.028525100708007813	0.9886840209960938	-0.01766279983520508	-0.031096500396728517	0.9837039794921875	0.0037789399623870848	-0.015223500251770019	1.0268800048828124	0.016166799545288085	-0.011744500160217285	1.0188099975585938	0.026186800003051756	-0.008209819793701173	0.9933619995117188	-0.01607640075683594	-0.006343160152435303	0.9872529907226563	0.0014123599529266351	0.002122989892959594	1.0254100341796875	0.01594760036468506	0.004176609992980957	1.0171799926757812	0.020057600021362306	0.009590100288391114	0.9990269775390626	-0.011466600418090821	0.014275199890136718	0.9964869995117187	-0.025804100036621095	-0.011755000114440918	1.0681400146484374
11	0.36666666666666664	-0.015045000076293944	-0.13310800170898437	1.016969970703125	-0.0042913098335266115	-0.107052001953125	1.0234199829101562	-0.005997330188751221	-0.07991089630126953	1.039800048828125	-0.006513850212097168	-0.04109360122680664	1.0513299560546876	0.0032100598812103273	-0.04771720123291016	1.0213599853515625	0.02083489990234375	-0.04621829986572266	1.0133499755859374	0.027599599838256834	-0.050124801635742185	0.9891900024414062	-0.013551899909973145	-0.055259498596191406	0.9906749877929687	0.009856909751892089	-0.032185199737548825	1.0249200439453126	0.01883679962158203	-0.029008100509643555	1.0172000122070313	0.026963899612426758	-0.028447900772094727	0.9887630004882813	-0.01770089912414551	-0.031051300048828126	0.9837479858398438	0.003713969945907592	-0.01520580005645752	1.0271700439453124	0.016087900161743163	-0.011683099746704102	1.019	0.026140600204467773	-0.008134499549865722	0.9934760131835938	-0.016093700408935548	-0.006294529914855957	0.9873270263671875	0.001401759982109069	0.002129699945449829	1.0256800537109374	0.016101499557495118	0.004323219776153565	1.0181099853515625	0.02002519989013672	0.009676050186157227	0.9991580200195312	-0.01155049991607666	0.014324199676513672	0.9966630249023437	-0.02588050079345703	-0.0116899995803833	1.06802001953125
12	0.4	-0.015130200386047364	-0.133031005859375	1.0168699951171876	-0.004400310039520264	-0.10703199768066406	1.0233699951171875	-0.006067880153656006	-0.07981990051269532	1.0397900390625	-0.006615839958190918	-0.04105540084838867	1.0514200439453125	0.003170890092849731	-0.04767919921875	1.0214299926757813	0.020826099395751953	-0.04619800186157227	1.0133300170898438	0.027514699935913087	-0.05002790069580078	0.9891599731445313	-0.013537500381469727	-0.05521390151977539	0.9906619873046875	0.009373600006103516	-0.03239059829711914	1.0252099609375	0.018978099822998046	-0.02897450065612793	1.017219970703125	0.0269158992767334	-0.028414400100708007	0.98893798828125	-0.017754499435424804	-0.030964799880981445	0.983791015625	0.004383940219879151	-0.015213600158691406	1.0271700439453124	0.016162200927734374	-0.011640600204467774	1.0190999755859376	0.026122100830078127	-0.008087719917297363	0.9935789794921875	-0.01612350082397461	-0.0062308101654052735	0.9874019775390624	0.0013471699953079219	0.0021625099182128902	1.0256300048828124	0.016007299423217772	0.004293789863586426	1.01772998046875	0.02003109931945801	0.009694829940795898	0.9992459716796875	-0.011474699974060058	0.014336999893188476	0.9966640014648438	-0.02592639923095703	-0.01160379981994629	1.0680699462890626
13	0.43333333333333335	-0.01504419994354248	-0.13300599670410157	1.0168599853515625	-0.0043622198104858395	-0.10687999725341797	1.0235700073242187	-0.006097010135650635	-0.07996739959716796	1.0397900390625	-0.006675449848175049	-0.04099629974365234	1.051489990234375	0.003334589958190918	-0.04765729904174805	1.0217899780273438	0.0206156005859375	-0.04621770095825195	1.0132999877929687	0.027629299163818358	-0.05011909866333008	0.98943701171875	-0.013507900238037109	-0.05517559814453125	0.9907529907226562	0.009645440101623536	-0.03217660140991211	1.0251400146484375	0.01890519905090332	-0.028947999954223633	1.0173300170898438	0.026978900909423828	-0.02843050003051758	0.9889340209960937	-0.017660600662231445	-0.03098320007324219	0.9838209838867188	0.0035857501029968263	-0.015180500030517578	1.027510009765625	0.016037799835205077	-0.011634300231933594	1.0193300170898438	0.026176300048828125	-0.008046669960021973	0.9937890014648437	-0.016061899185180663	-0.0062385001182556155	0.9874439697265625	0.001337329983711242	0.002143779993057251	1.025530029296875	0.016063600540161132	0.004286759853363037	1.0178300170898438	0.020070899963378908	0.009682419776916504	0.999489990234375	-0.011467000007629395	0.014368800163269043	0.9967769775390625	-0.025966899871826172	-0.0116806001663208	1.0680999755859375
14	0.4666666666666667	-0.01509630012512207	-0.13299400329589844	1.016739990234375	-0.0043633999824523925	-0.10700700378417968	1.0233599853515625	-0.006103400230407715	-0.07993309783935547	1.0398699951171875	-0.006702119827270508	-0.04097710037231445	1.0516099853515626	0.0033611900806427	-0.047730400085449216	1.0215999755859375	0.020869800567626953	-0.04621260070800781	1.013510009765625	0.02761709976196289	-0.050159900665283204	0.989301025390625	-0.013466300010681153	-0.055232601165771486	0.9907579956054687	0.010032999992370605	-0.03213069915771485	1.02475	0.018829799652099608	-0.029035100936889647	1.0174299926757813	0.026962900161743165	-0.028554599761962892	0.988843017578125	-0.017674699783325195	-0.030991300582885743	0.9838510131835938	0.0035662300586700437	-0.015257800102233886	1.027489990234375	0.01601230049133301	-0.01171500015258789	1.019239990234375	0.02617930030822754	-0.008184709548950196	0.9936010131835937	-0.01601449966430664	-0.006282299995422363	0.98743701171875	0.001352530002593994	0.0020727601051330562	1.0258800048828125	0.016013999938964844	0.00423537015914917	1.01822998046875	0.020089399337768554	0.009636469841003418	0.9993770141601562	-0.0113725004196167	0.014277099609375	0.9967369995117188	-0.025861200332641603	-0.011673199653625487	1.068300048828125
15	0.5	-0.015190899848937988	-0.13295799255371094	1.0164400024414062	-0.004444399833679199	-0.10701599884033203	1.0230800170898438	-0.006091420173645019	-0.07990180206298828	1.0396600341796876	-0.0066016302108764646	-0.041115501403808596	1.05147998046875	0.0033339700698852537	-0.04771900177001953	1.021489990234375	0.020804100036621094	-0.04624369812011719	1.013489990234375	0.02753190040588379	-0.050178298950195314	0.989176025390625	-0.013559700012207031	-0.05524509811401367	0.99068798828125	0.00954775047302246	-0.03235630035400391	1.025219970703125	0.018832300186157228	-0.029066200256347655	1.0171500244140625	0.026817100524902344	-0.028612699508666992	0.9884559936523437	-0.017644500732421874	-0.031045799255371095	0.9837440185546875	0.003983789920806884	-0.015242199897766113	1.02747998046875	0.016094999313354494	-0.011736599922180176	1.0191400146484375	0.02618869972229004	-0.008190609931945802	0.9936329956054688	-0.016125600814819337	-0.006277070045471191	0.9875709838867187	0.0013491599559783932	0.0020498099327087398	1.0258699951171875	0.015915300369262694	0.004216690063476561	1.0179500122070313	0.020053300857543945	0.009590530395507812	0.99918701171875	-0.011460599899291992	0.01427620029449463	0.996822021484375	-0.025857999801635743	-0.011812800407409669	1.06822998046875
